<svg width="48" height="48" viewBox="0 0 48 48" fill="none" xmlns="http://www.w3.org/2000/svg">
<circle cx="24" cy="24" r="24" fill="#FFBF00"/>
<path d="M33.0223 37.8354H14.9777C12.4842 37.8354 10.4471 35.7983 10.4471 33.3047V15.2601C10.4471 12.7666 12.4842 10.7295 14.9777 10.7295H33.0223C35.5158 10.7295 37.5529 12.7666 37.5529 15.2601V33.3047C37.5529 35.8094 35.5269 37.8354 33.0223 37.8354Z" fill="white"/>
<path d="M24.0056 31.2453C22.1466 31.2453 20.3989 30.5217 19.0853 29.2082C17.7718 27.8946 17.0482 26.1469 17.0482 24.2879C17.0482 22.4289 17.7718 20.6812 19.0853 19.3677C20.3989 18.0541 22.1466 17.3306 24.0056 17.3306C25.8646 17.3306 27.6123 18.0541 28.9258 19.3677C30.2394 20.6812 30.9629 22.4289 30.9629 24.2879C30.9629 26.1469 30.2394 27.8946 28.9258 29.2082C27.6011 30.5217 25.8646 31.2453 24.0056 31.2453ZM24.0056 18.8111C20.9889 18.8111 18.5287 21.2601 18.5287 24.2879C18.5287 27.3046 20.9777 29.7648 24.0056 29.7648C27.0223 29.7648 29.4824 27.3158 29.4824 24.2879C29.4713 21.2712 27.0223 18.8111 24.0056 18.8111Z" fill="black"/>
<path d="M32.319 17.102C33.0568 17.102 33.6548 16.5039 33.6548 15.7661C33.6548 15.0284 33.0568 14.4303 32.319 14.4303C31.5812 14.4303 30.9832 15.0284 30.9832 15.7661C30.9832 16.5039 31.5812 17.102 32.319 17.102Z" fill="black"/>
</svg>
