<svg width="55" height="55" viewBox="0 0 55 55" fill="none" xmlns="http://www.w3.org/2000/svg">
<rect width="55" height="55" rx="27.5" fill="#333333"/>
<g clip-path="url(#clip0_140_344)">
<path d="M26.9425 14.6022C30.9639 14.6022 31.4401 14.6198 33.0216 14.6904C34.4914 14.7551 35.2851 15.002 35.8142 15.2078C36.5138 15.4782 37.0194 15.8074 37.5427 16.3307C38.0718 16.8598 38.3951 17.3595 38.6656 18.0592C38.8714 18.5883 39.1183 19.3878 39.183 20.8518C39.2535 22.4391 39.2711 22.9154 39.2711 26.9308C39.2711 30.9522 39.2535 31.4284 39.183 33.0099C39.1183 34.4797 38.8714 35.2734 38.6656 35.8025C38.3951 36.5021 38.0659 37.0077 37.5427 37.531C37.0135 38.0601 36.5138 38.3834 35.8142 38.6539C35.2851 38.8597 34.4855 39.1066 33.0216 39.1713C31.4342 39.2418 30.958 39.2594 26.9425 39.2594C22.9212 39.2594 22.445 39.2418 20.8635 39.1713C19.3937 39.1066 18.6 38.8597 18.0709 38.6539C17.3712 38.3834 16.8656 38.0542 16.3424 37.531C15.8133 37.0018 15.4899 36.5021 15.2195 35.8025C15.0137 35.2734 14.7668 34.4738 14.7021 33.0099C14.6315 31.4225 14.6139 30.9463 14.6139 26.9308C14.6139 22.9095 14.6315 22.4333 14.7021 20.8518C14.7668 19.382 15.0137 18.5883 15.2195 18.0592C15.4899 17.3595 15.8191 16.8539 16.3424 16.3307C16.8715 15.8016 17.3712 15.4782 18.0709 15.2078C18.6 15.002 19.3995 14.7551 20.8635 14.6904C22.445 14.6198 22.9212 14.6022 26.9425 14.6022ZM26.9425 11.8919C22.8565 11.8919 22.345 11.9095 20.74 11.9801C19.1409 12.0506 18.0415 12.3093 17.089 12.6797C16.0955 13.0677 15.2547 13.5792 14.4199 14.4199C13.5792 15.2548 13.0677 16.0955 12.6797 17.0832C12.3093 18.0415 12.0506 19.135 11.98 20.7342C11.9095 22.3451 11.8918 22.8566 11.8918 26.9426C11.8918 31.0286 11.9095 31.5401 11.98 33.1451C12.0506 34.7442 12.3093 35.8436 12.6797 36.7961C13.0677 37.7897 13.5792 38.6304 14.4199 39.4652C15.2547 40.3001 16.0955 40.8174 17.0832 41.1996C18.0415 41.57 19.135 41.8286 20.7341 41.8992C22.3391 41.9697 22.8506 41.9874 26.9366 41.9874C31.0227 41.9874 31.5342 41.9697 33.1392 41.8992C34.7383 41.8286 35.8377 41.57 36.7901 41.1996C37.7778 40.8174 38.6186 40.3001 39.4534 39.4652C40.2882 38.6304 40.8056 37.7897 41.1878 36.802C41.5581 35.8436 41.8168 34.7501 41.8874 33.151C41.9579 31.546 41.9756 31.0345 41.9756 26.9485C41.9756 22.8624 41.9579 22.351 41.8874 20.7459C41.8168 19.1468 41.5581 18.0474 41.1878 17.095C40.8174 16.0955 40.3059 15.2548 39.4652 14.4199C38.6303 13.5851 37.7896 13.0677 36.8019 12.6856C35.8436 12.3152 34.7501 12.0565 33.1509 11.986C31.54 11.9095 31.0285 11.8919 26.9425 11.8919Z" fill="#D9D9D9"/>
<path d="M26.9425 19.2115C22.6743 19.2115 19.2114 22.6743 19.2114 26.9426C19.2114 31.2109 22.6743 34.6737 26.9425 34.6737C31.2108 34.6737 34.6736 31.2109 34.6736 26.9426C34.6736 22.6743 31.2108 19.2115 26.9425 19.2115ZM26.9425 31.9575C24.1734 31.9575 21.9276 29.7117 21.9276 26.9426C21.9276 24.1735 24.1734 21.9277 26.9425 21.9277C29.7116 21.9277 31.9575 24.1735 31.9575 26.9426C31.9575 29.7117 29.7116 31.9575 26.9425 31.9575Z" fill="#D9D9D9"/>
<path d="M36.7844 18.9058C36.7844 19.9053 35.973 20.7107 34.9795 20.7107C33.98 20.7107 33.1746 19.8994 33.1746 18.9058C33.1746 17.9063 33.9859 17.1009 34.9795 17.1009C35.973 17.1009 36.7844 17.9122 36.7844 18.9058Z" fill="#D9D9D9"/>
</g>
<defs>
<clipPath id="clip0_140_344">
<rect width="30.1014" height="30.1014" fill="white" transform="translate(11.8918 11.8919)"/>
</clipPath>
</defs>
</svg>
