<svg width="55" height="55" viewBox="0 0 55 55" fill="none" xmlns="http://www.w3.org/2000/svg">
<rect width="55" height="55" rx="27.5" fill="#333333"/>
<g clip-path="url(#clip0_140_338)">
<path d="M40.3284 13.3784H15.5264C14.9567 13.3784 14.4104 13.6047 14.0076 14.0076C13.6047 14.4104 13.3784 14.9567 13.3784 15.5264V40.3284C13.3784 40.8981 13.6047 41.4444 14.0076 41.8473C14.4104 42.2501 14.9567 42.4764 15.5264 42.4764H40.3284C40.8981 42.4764 41.4444 42.2501 41.8473 41.8473C42.2501 41.4444 42.4764 40.8981 42.4764 40.3284V15.5264C42.4764 14.9567 42.2501 14.4104 41.8473 14.0076C41.4444 13.6047 40.8981 13.3784 40.3284 13.3784ZM22.0512 38.1663H17.6764V24.27H22.0512V38.1663ZM19.8608 22.3442C19.3646 22.3414 18.8803 22.1917 18.469 21.9139C18.0578 21.6362 17.7381 21.2428 17.5502 20.7835C17.3623 20.3242 17.3147 19.8195 17.4134 19.3331C17.512 18.8468 17.7526 18.4006 18.1046 18.0508C18.4566 17.701 18.9044 17.4634 19.3914 17.3678C19.8783 17.2723 20.3827 17.3231 20.8408 17.514C21.2989 17.7048 21.6902 18.027 21.9653 18.44C22.2404 18.853 22.3871 19.3383 22.3867 19.8345C22.3913 20.1668 22.3291 20.4966 22.2036 20.8042C22.0781 21.1119 21.892 21.3912 21.6563 21.6254C21.4206 21.8595 21.1401 22.0439 20.8317 22.1674C20.5232 22.2909 20.193 22.351 19.8608 22.3442ZM38.1764 38.1784H33.8036V30.5866C33.8036 28.3477 32.8518 27.6566 31.6233 27.6566C30.326 27.6566 29.0529 28.6346 29.0529 30.6432V38.1784H24.6781V24.2801H28.8852V26.2058H28.9418C29.3641 25.351 30.8433 23.8901 33.1004 23.8901C35.5414 23.8901 38.1784 25.3389 38.1784 29.5824L38.1764 38.1784Z" fill="#D9D9D9"/>
</g>
<defs>
<clipPath id="clip0_140_338">
<rect width="29.098" height="29.098" fill="white" transform="translate(13.3784 13.3784)"/>
</clipPath>
</defs>
</svg>
