<svg width="48" height="48" viewBox="0 0 48 48" fill="none" xmlns="http://www.w3.org/2000/svg">
<circle cx="24" cy="24" r="24" fill="#FFBF00"/>
<path d="M28.9124 10.0664L28.2344 9.03528H24.1315V18.3222L24.1175 27.3934C24.1245 27.4608 24.1315 27.5349 24.1315 27.6023C24.1315 29.8735 22.2163 31.7269 19.8537 31.7269C17.4912 31.7269 15.576 29.8803 15.576 27.6023C15.576 25.3312 17.4912 23.4778 19.8537 23.4778C20.343 23.4778 20.8183 23.5654 21.2587 23.7137V19.1848C20.8043 19.1107 20.336 19.0703 19.8537 19.0703C14.9819 19.077 11.0117 22.905 11.0117 27.6091C11.0117 32.3132 14.9819 36.1412 19.8607 36.1412C24.7396 36.1412 28.7097 32.3132 28.7097 27.6091V16.8193C30.4781 18.5244 32.7638 20.189 35.2941 20.7214V16.0914C32.5471 14.9188 29.8141 11.4547 28.9124 10.0664Z" fill="#04C8BC"/>
<path d="M30.889 12.6075L30.211 11.5764H26.108V20.8633L26.094 29.9346C26.101 30.0019 26.108 30.0761 26.108 30.1435C26.108 32.4147 24.1928 34.268 21.8303 34.268C19.4678 34.268 17.5526 32.4214 17.5526 30.1435C17.5526 27.8723 19.4678 26.019 21.8303 26.019C22.3196 26.019 22.7949 26.1066 23.2352 26.2548V21.726C22.7809 21.6518 22.3126 21.6114 21.8303 21.6114C16.9585 21.6181 12.9883 25.4461 12.9883 30.1502C12.9883 34.8543 16.9585 38.6823 21.8373 38.6823C26.7161 38.6823 30.6863 34.8543 30.6863 30.1502V19.3604C32.4547 21.0655 34.7403 22.7301 37.2706 23.2625V18.6326C34.5237 17.4599 31.7907 13.9959 30.889 12.6075Z" fill="#EC0071"/>
<path d="M29.7595 11.7605L29.0815 10.7294H24.9785V20.0163L24.9645 29.0875C24.9715 29.1549 24.9785 29.229 24.9785 29.2964C24.9785 31.5676 23.0633 33.4209 20.7008 33.4209C18.3383 33.4209 16.4231 31.5743 16.4231 29.2964C16.4231 27.0252 18.3383 25.1719 20.7008 25.1719C21.1901 25.1719 21.6654 25.2595 22.1057 25.4078V20.8789C21.6514 20.8048 21.1831 20.7643 20.7008 20.7643C15.8289 20.7711 11.8588 24.5991 11.8588 29.3032C11.8588 34.0073 15.8289 37.8353 20.7078 37.8353C25.5866 37.8353 29.5568 34.0073 29.5568 29.3032V18.5134C31.3252 20.2185 33.6108 21.8831 36.1411 22.4155V17.7855C33.3942 16.6129 30.6612 13.1488 29.7595 11.7605Z" fill="black"/>
</svg>
