<svg width="55" height="55" viewBox="0 0 55 55" fill="none" xmlns="http://www.w3.org/2000/svg">
<rect width="55" height="55" rx="27.5" fill="#333333"/>
<g clip-path="url(#clip0_140_341)">
<path d="M43.9135 19.2169C43.7202 18.4896 43.3393 17.8257 42.8088 17.2919C42.2784 16.758 41.617 16.3728 40.8909 16.1749C38.2179 15.4561 27.5338 15.4561 27.5338 15.4561C27.5338 15.4561 16.8497 15.4561 14.1767 16.1749C13.4506 16.3728 12.7892 16.758 12.2588 17.2919C11.7283 17.8257 11.3474 18.4896 11.1541 19.2169C10.4392 21.9016 10.4392 27.5 10.4392 27.5C10.4392 27.5 10.4392 33.0985 11.1541 35.7831C11.3474 36.5105 11.7283 37.1743 12.2588 37.7082C12.7892 38.2421 13.4506 38.6273 14.1767 38.8252C16.8497 39.544 27.5338 39.544 27.5338 39.544C27.5338 39.544 38.2179 39.544 40.8909 38.8252C41.617 38.6273 42.2784 38.2421 42.8088 37.7082C43.3393 37.1743 43.7202 36.5105 43.9135 35.7831C44.6284 33.0985 44.6284 27.5 44.6284 27.5C44.6284 27.5 44.6284 21.9016 43.9135 19.2169Z" fill="#D9D9D9"/>
<path d="M24.0374 32.5837V22.4163L32.9732 27.5L24.0374 32.5837Z" fill="#1E1E1E"/>
</g>
<defs>
<clipPath id="clip0_140_341">
<rect width="34.1892" height="34.1892" fill="white" transform="translate(10.4053 10.4054)"/>
</clipPath>
</defs>
</svg>
